PathFileType	4	(X/Y/Z)	43_1_10_p1_0-310_filt_butterworth.trc
DataRate	CameraRate	NumFrames	NumMarkers	Units	OrigDataRate	OrigDataStartFrame	OrigNumFrames
60.0	60.0	7	27	m	60.0	232	310
Frame#	Time	RHip			RKnee			RAnkle			RBigToe			RSmallToe			RHeel			LHip			LKnee			LAnkle			LBigToe			LSmallToe			LHeel			Neck			Head			Nose			RShoulder			RElbow			RWrist			RThumb			RIndex			RPinky			LShoulder			LElbow			LWrist			LThumb			LIndex			LPinky			
		X1	Y1	Z1	X2	Y2	Z2	X3	Y3	Z3	X4	Y4	Z4	X5	Y5	Z5	X6	Y6	Z6	X7	Y7	Z7	X8	Y8	Z8	X9	Y9	Z9	X10	Y10	Z10	X11	Y11	Z11	X12	Y12	Z12	X13	Y13	Z13	X14	Y14	Z14	X15	Y15	Z15	X16	Y16	Z16	X17	Y17	Z17	X18	Y18	Z18	X19	Y19	Z19	X20	Y20	Z20	X21	Y21	Z21	X22	Y22	Z22	X23	Y23	Z23	X24	Y24	Z24	X25	Y25	Z25	X26	Y26	Z26	X27	Y27	Z27	
232	3.8666666666666663	0.24727363247514672	0.4675746830844694	1.1446844605383162	0.19746735794817316	0.5041252727566965	1.5936495253887666	0.1546698517338154	0.4937223470049267	1.9711946078078406	0.14989339127270399	0.3801607787832923	2.0088433437456907	0.21243098765644886	0.37846578184660973	2.0008915356490795	0.12561953125707673	0.5326813628439709	2.027190302415518	0.027567194413603856	0.4389276904031441	1.134713243116587	-0.000467708279657206	0.464939936564461	1.5537880185590978	-0.025811477332940827	0.5157283702546497	1.9956773121594586	0.0032458628963476298	0.3379572769650594	1.9753706005871277	-0.0557016474822491	0.37495505974723603	1.9922260319883325	-0.03379487333445489	0.5607816981434894	2.06035239712973	0.16240258672766672	0.48721034264436536	0.596288969492884	0.17234008035624462	0.45270226176309875	0.3819685223388021	0.1733120642449664	0.41499781263218816	0.49779875902220994	0.3072834047343466	0.5431840154926302	0.6786136518481825	0.44412300549876554	0.40443153421096023	0.8086207992971727	0.4126865679778241	0.36519461534982445	0.6051297442089425	0.34095948266533715	0.4179200807064951	0.5333913095649089	0.34999659500117464	0.40096584190239354	0.5085894511209011	0.3902604957007649	0.3529132527247005	0.5242459460069843	0.00219085142788027	0.49102336608680514	0.6597964100112155	-0.17027564496816192	0.37229467657575177	0.711672004240237	-0.053409043953922625	0.3199453053724538	0.5331060216230162	-0.0018383305431851145	0.3944730402959993	0.4831038031767396	-0.005032342901953465	0.39515606777609696	0.4495068237828692	-0.03295677884713442	0.3508170001298192	0.4490633653960602
233	3.883333333333333	0.2473206900653753	0.4685949042036699	1.145328436741661	0.1974673615022214	0.5037266405746234	1.5935778643894827	0.15462687084673193	0.49372603036853824	1.9711783022111338	0.14996473132387583	0.38087847691267446	2.0097182589160982	0.21504520997273302	0.37793035950219533	2.0001513402174065	0.12554017552258212	0.533201235624877	2.028616328767112	0.027879234727253593	0.43942660512939696	1.135225910651722	7.073508689291499e-05	0.4658592592268426	1.5539859114247008	-0.025811855618965394	0.5157254031912019	1.9957423682606195	0.0033423345244293513	0.3419702679555772	1.9783081283252237	-0.05556782216871448	0.3750414386403683	1.991821013914051	-0.0338107808943401	0.560770007103928	2.060532707970166	0.16454525660746802	0.4868384055781517	0.5958833347283558	0.1732022674797339	0.45302042508075036	0.37894668669931875	0.1752142531376414	0.41522952279805014	0.49690781134845163	0.3083697876508246	0.5495430856851221	0.6817897396022989	0.43823374842373075	0.4023275033246648	0.8331602148677913	0.4134928305800588	0.3489985256500121	0.6232194654143862	0.3447737312715451	0.4047454143207455	0.5464046268333481	0.36007105731106354	0.3876275412152891	0.5241262566695861	0.3963503325175153	0.32909451847657156	0.5412834983921105	0.002101951702547604	0.49392154455720994	0.6612867943114948	-0.170360456883947	0.37669006832745794	0.7390802267557421	-0.058281042491171886	0.31324006941730426	0.5590729446951771	-0.007062534363003213	0.37086929845633454	0.502569636573942	-0.0135285404537353	0.3700310203201287	0.466546129532275	-0.03886442463712989	0.32420427792728834	0.4663477580701674
234	3.9	0.24733571835344323	0.4688896049566542	1.1455314780023402	0.1975663239122063	0.5037441723314874	1.593311269423562	0.15462794824521384	0.4937139454369438	1.971158306743526	0.14998109986981584	0.38100022447152604	2.009869872300709	0.2171511558698576	0.37754390159288065	1.999610810838783	0.12551586333447057	0.5333877420219276	2.0298898689952405	0.028270383835574082	0.43979965352250794	1.135888472476792	0.0006415692651288716	0.46622684601254344	1.553958804178545	-0.02583462966903641	0.5157489138208398	1.995832925271761	0.0034829135801104794	0.34500078392541816	1.9809228097632587	-0.05515119475609849	0.3750084590117046	1.9906739067284311	-0.033861451703477874	0.5607768847138712	2.0608230169186177	0.16545865518659927	0.4867975223186937	0.5959703216586542	0.17461684080755593	0.45375565822243275	0.3765128272185681	0.17739206611565028	0.4153000810349801	0.4955356130588907	0.308805762571864	0.5518284368719459	0.6835895799870458	0.432609586543838	0.40630276450677855	0.8559752491038072	0.4150253113257857	0.3373340008569103	0.6451261551309874	0.3551804482053563	0.3917354043051802	0.5591561117132374	0.37713251713134605	0.36735935450127977	0.5418286373417198	0.40446410675990097	0.31231929900453453	0.559542533967921	0.0014572430980228	0.49621867009838594	0.6622796293088458	-0.16666251716124833	0.38024800066996045	0.765563788408957	-0.06440461367373924	0.3064613032531085	0.587083720563955	-0.014453151027276994	0.3390637447894641	0.5205311820645326	-0.024200551028694377	0.3356369558009492	0.4837848291063481	-0.04631989804964527	0.2947996178457345	0.48854537582045576
235	3.9166666666666665	0.24741901347824147	0.46876114432850813	1.1458397011826063	0.197876931816512	0.5051397582530246	1.59336894046029	0.15468859152733622	0.4936047757564355	1.971108127308881	0.1500107056852826	0.38098952791483165	2.009855802330811	0.21795345284532852	0.377432250823692	1.9997142083938886	0.12560575880401598	0.5329670374619837	2.0295020368993257	0.028721678592621636	0.4404770681460197	1.137139667001895	0.000733846788577959	0.46566262409415243	1.5536528061630221	-0.025872936630849226	0.5157840339484173	1.9960053255938788	0.0036544975021623734	0.3456974013544583	1.9817330824905555	-0.05450157798502535	0.37474742688027507	1.9890292579449662	-0.03394450105400963	0.5608111107569996	2.0608811327960264	0.1657802297939019	0.48700706432460844	0.5960656193263727	0.17645621657221433	0.4542741714173053	0.3754762931578106	0.17893373163623477	0.4152568005467789	0.49415720515603495	0.3089899318616477	0.5521015010777585	0.6847620663566665	0.4247228370460653	0.4167635602083085	0.8790100750353894	0.4166087175838171	0.32714750862431824	0.6725931599468573	0.37298601797881603	0.3708075855556434	0.5737995584050954	0.39808844820546796	0.33905115835166677	0.5609654284057729	0.4167305856087621	0.2934500262075266	0.5815053667784437	7.243730390156506e-05	0.496825507537258	0.6638704209416997	-0.15940865662017586	0.3842010975882351	0.7898800569761265	-0.07183905474658094	0.29755763986464545	0.6152290493300928	-0.023594531791270672	0.3063381246611439	0.5374310706191805	-0.03592092412645001	0.2989046040638735	0.502450339781483	-0.05526681700187598	0.26352111141327716	0.515696474864925
236	3.933333333333333	0.24762998898760502	0.4683583723904208	1.146626278205206	0.19839662540963957	0.5084297574526828	1.5941888800048185	0.15478562630167755	0.49331006547913453	1.9710177898851582	0.15008214119486238	0.38104474454012793	2.009962210504555	0.21747591898562918	0.37750597266793134	2.000740146281955	0.12586645085019862	0.5318091827849772	2.0270224651947073	0.0287359002612407	0.4428044291336919	1.1387953039362588	-7.309145825939699e-05	0.4647855679058116	1.5535696591932204	-0.025881132272706133	0.5158094406276316	1.996123672430422	0.0037997067292358613	0.3450024483622084	1.9811351450252281	-0.05390077446367175	0.3743438891118175	1.987653246898257	-0.034016835633635015	0.560877042764551	2.059918713493814	0.1660037627379225	0.4872760896231589	0.5965820459946867	0.17826177124428266	0.4542229007237225	0.37551962136566375	0.17962435377408273	0.41531067226242785	0.4929562757718729	0.30948771997288005	0.5522615146459351	0.686408223340562	0.41330852713325655	0.4316993742872028	0.901925761534844	0.41754832424671384	0.31606323815202975	0.7049205378295844	0.39570991343314793	0.3396058295777596	0.5933234416118277	0.4184598021802342	0.3055535626011108	0.5840146044166938	0.43086100920347625	0.2685611872069991	0.6108066369676138	-0.0014797460738432792	0.49641595109328296	0.6659134203237043	-0.14967076381288222	0.39323184123898425	0.8120143497777754	-0.08005224116940908	0.28481884189174944	0.6421645490648688	-0.03422108999942714	0.2787739407790679	0.5529460446450309	-0.0491506662874312	0.26441288708257116	0.5238237720738785	-0.0644172663293244	0.23189258376480143	0.5490549225683029
237	3.95	0.24776327155680428	0.4679575942350661	1.1477642573564744	0.1989874883799236	0.5125348527335429	1.5957976213535188	0.15489322585765278	0.4929092755270891	1.9709688599187851	0.15006177506089013	0.38108505778438395	2.0099284347908655	0.21631018682324657	0.37759393728693547	2.0021921032457817	0.12625340575854568	0.5305564123781531	2.024294629060251	0.02749645517199075	0.4472037383046684	1.140054705528102	-0.0013968732095137409	0.4644778435526053	1.5544745814206644	-0.02575546577153565	0.5157608319141624	1.9956981352910907	0.003713827104811228	0.3454892869025387	1.9809136202361386	-0.05375427520809409	0.3743215294062577	1.987216946272802	-0.033967159654248215	0.5608829684411266	2.057350506205033	0.1661800085870464	0.48749466484746756	0.5977482376841895	0.1799182668070617	0.45387129029097395	0.375475954681333	0.18022970452311485	0.4154703458567353	0.49192039628133777	0.3112102996818955	0.553073415738731	0.6894958512951874	0.39983015794367943	0.44685488872073253	0.921704947382493	0.41770206499600127	0.3057272795631676	0.7392560890838987	0.4198492736372679	0.3030471313764939	0.6192325844582738	0.4358743947144164	0.27135206818775587	0.613987773807874	0.44068732990654125	0.24528393673385707	0.6489251845183371	-0.0020215822353920783	0.49638663432225905	0.6676493003012459	-0.13857039646534486	0.4109519829821277	0.8320219359342318	-0.08863874391504385	0.26877597222184346	0.6688574293055711	-0.04766790399116968	0.2533740371101963	0.5676830524309637	-0.06511657492663116	0.23302736944856733	0.5490461998719223	-0.0729313761698197	0.2062205736537647	0.5898832640382863
238	3.966666666666667	0.2471940321041605	0.46791314409357365	1.1489231722055562	0.19942290969945078	0.5155420416776613	1.5974216627197055	0.15505289572828262	0.4928459557787396	1.9711386711389234	0.149596669872846	0.3808271558613599	2.008921234229154	0.21535560224968792	0.37756933541257126	2.002437451802982	0.12655389755600832	0.5310539451246246	2.023280639255293	0.025217356163020177	0.45157034711097094	1.1404665023288365	-0.0022598337986335115	0.46474724062941236	1.556443293560508	-0.02541396391749059	0.5155096326952266	1.9940920465431127	0.003111736312376856	0.3495980671295069	1.982470559018327	-0.0545875608758231	0.375690320545462	1.988151563063948	-0.03365609965099482	0.5605233493907249	2.054105342550723	0.16640250100392973	0.4873804961734446	0.5990658996836075	0.18170173398498699	0.45370928931272503	0.3741843237679284	0.1817156322443771	0.41510793533421886	0.4911606708984126	0.31454190568607504	0.5540089393193588	0.6939491212515944	0.38654103147180274	0.4573840097883199	0.9352685949213781	0.4170774723970002	0.2983435208478577	0.7729327358360714	0.4421755988950363	0.26795168499720506	0.6516626277189467	0.4490321985147824	0.2427997927399399	0.6517721037003923	0.4426197182946122	0.23150930226070446	0.6936776332023321	-0.0007980715153948371	0.4974135930240054	0.6688117953314785	-0.1272961768998011	0.43484311784495683	0.8481922948982081	-0.09804561299286207	0.2542718811564566	0.6973678049669325	-0.06539549862285092	0.22463981823266305	0.5849958356385421	-0.084419510001335	0.2054188902265924	0.5798702321825573	-0.0833317042952167	0.1933748612934173	0.6361874105087032
